name D:\school\WTK\thesis\model\3dpredictsim\Results\batch_windlass\Pog_s1_tmt_aCst_d05_k500_WL30_ig24_act_TTC.mot
datacolumns 128
datarows 4
range 0.00000000 0.03519332
endheader
time	pelvis_tilt	pelvis_list	pelvis_rotation	pelvis_tx	pelvis_ty	pelvis_tz	hip_flexion_l	hip_adduction_l	hip_rotation_l	hip_flexion_r	hip_adduction_r	hip_rotation_r	knee_angle_l	knee_angle_r	ankle_angle_l	ankle_angle_r	subtalar_angle_l	subtalar_angle_r	tmt_angle_l	tmt_angle_r	mtp_angle_l	mtp_angle_r	lumbar_extension	lumbar_bending	lumbar_rotation	arm_flex_l	arm_add_l	arm_rot_l	arm_flex_r	arm_add_r	arm_rot_r	elbow_flex_l	elbow_flex_r	pro_sup_l	pro_sup_r	glut_med1_l/activation	glut_med2_l/activation	glut_med3_l/activation	glut_min1_l/activation	glut_min2_l/activation	glut_min3_l/activation	semimem_l/activation	semiten_l/activation	bifemlh_l/activation	bifemsh_l/activation	sar_l/activation	add_long_l/activation	add_brev_l/activation	add_mag1_l/activation	add_mag2_l/activation	add_mag3_l/activation	tfl_l/activation	pect_l/activation	grac_l/activation	glut_max1_l/activation	glut_max2_l/activation	glut_max3_l/activation	iliacus_l/activation	psoas_l/activation	quad_fem_l/activation	gem_l/activation	peri_l/activation	rect_fem_l/activation	vas_med_l/activation	vas_int_l/activation	vas_lat_l/activation	med_gas_l/activation	lat_gas_l/activation	soleus_l/activation	tib_post_l/activation	flex_dig_l/activation	flex_hal_l/activation	tib_ant_l/activation	per_brev_l/activation	per_long_l/activation	per_tert_l/activation	ext_dig_l/activation	ext_hal_l/activation	ercspn_l/activation	intobl_l/activation	extobl_l/activation	glut_med1_r/activation	glut_med2_r/activation	glut_med3_r/activation	glut_min1_r/activation	glut_min2_r/activation	glut_min3_r/activation	semimem_r/activation	semiten_r/activation	bifemlh_r/activation	bifemsh_r/activation	sar_r/activation	add_long_r/activation	add_brev_r/activation	add_mag1_r/activation	add_mag2_r/activation	add_mag3_r/activation	tfl_r/activation	pect_r/activation	grac_r/activation	glut_max1_r/activation	glut_max2_r/activation	glut_max3_r/activation	iliacus_r/activation	psoas_r/activation	quad_fem_r/activation	gem_r/activation	peri_r/activation	rect_fem_r/activation	vas_med_r/activation	vas_int_r/activation	vas_lat_r/activation	med_gas_r/activation	lat_gas_r/activation	soleus_r/activation	tib_post_r/activation	flex_dig_r/activation	flex_hal_r/activation	tib_ant_r/activation	per_brev_r/activation	per_long_r/activation	per_tert_r/activation	ext_dig_r/activation	ext_hal_r/activation	ercspn_r/activation	intobl_r/activation	extobl_r/activation	
          0.00000000	         -2.93015994	         -0.15245318	          7.61937654	          0.00000000	          0.86234735	         -0.00130174	        -14.98542358	         -1.43802622	          7.80597509	         32.05344714	         -0.91531553	         -2.02471315	        -16.31147773	        -19.32600734	         -8.65844635	          2.72020815	         17.68491622	          8.50713852	        -10.27273837	         -0.01685164	         35.70758428	          0.20450338	          0.94854553	         -2.65062358	         -2.39591056	          3.55263252	        -13.46342383	         15.56496338	        -12.50848247	        -13.51414094	         10.83440786	         36.82384637	         18.39870516	         86.51662706	         86.51662706	          0.16203744	          0.07861447	          0.06705018	          0.18636109	          0.14091661	          0.08665757	          0.05000251	          0.05000028	          0.05000028	          0.05000128	          0.07149247	          0.06392603	          0.05000042	          0.05000049	          0.05000095	          0.05000041	          0.16792474	          0.05423264	          0.05000290	          0.05000509	          0.05000190	          0.05000075	          0.34644620	          0.56169771	          0.05126767	          0.05044807	          0.05977957	          0.30369264	          0.06986402	          0.10158227	          0.08401380	          0.14280051	          0.20166087	          0.05000001	          0.13312726	          0.13483901	          0.15360129	          0.07678261	          0.42525069	          0.35988434	          0.46681134	          0.32519616	          0.05977678	          0.05000002	          0.06256204	          0.05000019	          0.05000076	          0.05003967	          0.05074680	          0.05833784	          0.05010280	          0.05000805	          0.09475178	          0.08543465	          0.18128151	          0.05383854	          0.05016448	          0.06575811	          0.07048807	          0.10715732	          0.12540410	          0.12079007	          0.05000103	          0.05001833	          0.05928052	          0.05001081	          0.08441809	          0.12086703	          0.07939887	          0.07960751	          0.12413150	          0.05007111	          0.05670424	          0.05000048	          0.05000425	          0.05094657	          0.05000195	          0.07146321	          0.07146320	          0.07146318	          0.05977608	          0.05000830	          0.07146132	          0.45718334	          0.19266040	          0.14474194	          0.14581705	          0.45984382	          0.09416069	          0.05000006	          0.14370671	          0.13645687	
          0.01173111	         -2.92495849	         -0.05685886	          7.79531397	          0.01848533	          0.86123470	         -0.00106418	        -15.22856473	         -1.60365673	          7.61147414	         31.58761370	         -0.76795346	         -1.87869457	        -17.24838578	        -18.95096009	        -11.40515850	          2.30305556	         18.05286602	          8.15483594	        -11.02606068	         -0.07844852	         36.96798524	          0.41328863	          1.16064396	         -2.51518567	         -2.47148164	          3.30687435	        -13.48948963	         15.92207295	        -13.82265040	        -13.49376116	         10.90255121	         37.69056967	         18.39647112	         86.51662706	         86.51662706	          0.13553744	          0.06575795	          0.05608477	          0.15588314	          0.11787082	          0.07248560	          0.05000224	          0.05000034	          0.05000043	          0.05000018	          0.05980056	          0.15390541	          0.11142565	          0.05062350	          0.05002548	          0.05004060	          0.14046194	          0.05002688	          0.05000157	          0.05003202	          0.05001128	          0.05003962	          0.28978746	          0.49500812	          0.08542803	          0.05000133	          0.05000323	          0.25402591	          0.05977631	          0.10818820	          0.07898603	          0.11944652	          0.16868070	          0.05000001	          0.11135527	          0.11278711	          0.12848093	          0.25300432	          0.47253495	          0.35342570	          0.70080432	          0.46969839	          0.05000086	          0.05000003	          0.06519879	          0.06231959	          0.06655450	          0.05000080	          0.09009684	          0.05000119	          0.05000133	          0.05000987	          0.07925587	          0.07146283	          0.15163430	          0.05481123	          0.05000173	          0.05977619	          0.14050806	          0.14121887	          0.16256285	          0.14002414	          0.05000031	          0.05147278	          0.06660897	          0.05000107	          0.11258291	          0.14317049	          0.06641379	          0.06658833	          0.12550829	          0.05001074	          0.05018594	          0.05000010	          0.11823425	          0.11753687	          0.10579781	          0.05977593	          0.05977594	          0.05977591	          0.05000021	          0.05976209	          0.05977584	          0.51372891	          0.21931680	          0.14205705	          0.24807166	          0.50335194	          0.14144763	          0.05000005	          0.12020453	          0.11414034	
          0.02346221	         -2.91257381	          0.02963997	          7.94227390	          0.03718802	          0.85967917	         -0.00082369	        -15.28773764	         -1.73916753	          7.40232802	         31.04454325	         -0.58275322	         -1.68884403	        -18.59899573	        -19.18823958	        -13.95499849	          1.83248031	         18.33003090	          7.76795038	        -11.34627479	         -0.13727459	         37.05631431	          0.65910819	          1.38085172	         -2.35558176	         -2.53587994	          3.00116766	        -13.53423884	         16.21806192	        -15.11736811	        -13.48458928	         11.05524520	         38.55201924	         18.35172837	         86.51662706	         86.51662706	          0.11337131	          0.05500516	          0.07146330	          0.13038965	          0.09859401	          0.06063203	          0.07139537	          0.06459376	          0.07146319	          0.05000177	          0.05002080	          0.20622250	          0.24718164	          0.26651017	          0.10171526	          0.11898777	          0.11749049	          0.05000103	          0.06644982	          0.05002766	          0.07141986	          0.07146395	          0.24239483	          0.41405344	          0.07146325	          0.07146453	          0.06841243	          0.21248182	          0.05000041	          0.09049505	          0.06606855	          0.09991191	          0.14109419	          0.05000004	          0.09314392	          0.09434166	          0.10746884	          0.32858415	          0.43769777	          0.32496285	          0.61301349	          0.57090260	          0.22006390	          0.05000004	          0.07146320	          0.07146313	          0.05567029	          0.05562886	          0.10365137	          0.05000037	          0.05000046	          0.05000092	          0.06629416	          0.05977572	          0.12683562	          0.05000012	          0.05000015	          0.05000047	          0.11752925	          0.26025019	          0.22764798	          0.14187807	          0.05977623	          0.05000075	          0.05571621	          0.05977595	          0.13095712	          0.15425231	          0.05555232	          0.05569835	          0.21620022	          0.05000100	          0.05243002	          0.07146334	          0.25086613	          0.23337586	          0.20939599	          0.05000002	          0.05000003	          0.05000000	          0.05000003	          0.05000026	          0.05000013	          0.64228700	          0.18344919	          0.11882469	          0.57804889	          0.54904428	          0.27804435	          0.05000000	          0.10054595	          0.09547352	
          0.03519332	         -2.89455153	          0.09955786	          8.05614067	          0.05595501	          0.85771886	         -0.00060086	        -15.13430971	         -1.85212922	          7.19615812	         30.36213688	         -0.38954666	         -1.42864387	        -20.41011946	        -20.03901769	        -16.14501913	          1.55063310	         18.53357300	          7.34276489	        -11.11432936	         -0.42152827	         35.51986924	          0.86845358	          1.59750609	         -2.16442793	         -2.58393842	          2.65279286	        -13.59114954	         16.45131987	        -16.36275660	        -13.49615224	         11.32548330	         39.41687936	         18.25279445	         86.51662706	         86.51662706	          0.18631185	          0.05977511	          0.05977604	          0.10906547	          0.08246989	          0.05071650	          0.08384911	          0.05403007	          0.05977604	          0.05000011	          0.05000066	          0.17249643	          0.23586863	          0.22292448	          0.08508106	          0.09952840	          0.09827607	          0.07164929	          0.05977586	          0.05971859	          0.05977426	          0.05977685	          0.20275297	          0.41010168	          0.05977615	          0.05977720	          0.05722411	          0.17773196	          0.11358645	          0.07569559	          0.07146320	          0.08357204	          0.11801927	          0.05000006	          0.07791092	          0.07891286	          0.08989314	          0.27484659	          0.38092399	          0.28971964	          0.51275968	          0.71330553	          0.18407406	          0.08206870	          0.05977591	          0.05977594	          0.21731102	          0.28236077	          0.47301756	          0.19573508	          0.05000374	          0.38387184	          0.07146429	          0.05000014	          0.10609268	          0.05000013	          0.05635507	          0.07146272	          0.10214457	          0.21768826	          0.19041877	          0.16787108	          0.05000035	          0.07122154	          0.07146541	          0.05000010	          0.18763445	          0.19389399	          0.05977593	          0.05158300	          0.18084230	          0.10436211	          0.29515721	          0.05977604	          0.21998927	          0.22472390	          0.21105324	          0.05977570	          0.05977576	          0.05977591	          0.10751026	          0.05000121	          0.05977149	          0.58572816	          0.15344742	          0.09939178	          0.48351324	          0.51682556	          0.23257247	          0.05236650	          0.08543552	          0.07985952	
